<?xml version="1.0" encoding="utf-8" standalone="no"?>
<!DOCTYPE svg PUBLIC "-//W3C//DTD SVG 1.1//EN"
  "http://www.w3.org/Graphics/SVG/1.1/DTD/svg11.dtd">
<svg xmlns:xlink="http://www.w3.org/1999/xlink" width="720pt" height="576pt" viewBox="0 0 720 576" xmlns="http://www.w3.org/2000/svg" version="1.1">
 <metadata>
  <rdf:RDF xmlns:dc="http://purl.org/dc/elements/1.1/" xmlns:cc="http://creativecommons.org/ns#" xmlns:rdf="http://www.w3.org/1999/02/22-rdf-syntax-ns#">
   <cc:Work>
    <dc:type rdf:resource="http://purl.org/dc/dcmitype/StillImage"/>
    <dc:date>2026-04-10T21:35:28.647614</dc:date>
    <dc:format>image/svg+xml</dc:format>
    <dc:creator>
     <cc:Agent>
      <dc:title>Matplotlib v3.9.4, https://matplotlib.org/</dc:title>
     </cc:Agent>
    </dc:creator>
   </cc:Work>
  </rdf:RDF>
 </metadata>
 <defs>
  <style type="text/css">*{stroke-linejoin: round; stroke-linecap: butt}</style>
 </defs>
 <g id="figure_1">
  <g id="patch_1">
   <path d="M 0 576 
L 720 576 
L 720 0 
L 0 0 
z
" style="fill: #ffffff"/>
  </g>
  <g id="axes_1">
   <g id="patch_2">
    <path d="M 64.92 517.38 
L 699.21 517.38 
L 699.21 18 
L 64.92 18 
z
" style="fill: #ffffff"/>
   </g>
   <g id="matplotlib.axis_1">
    <g id="xtick_1">
     <g id="line2d_1">
      <path d="M 85.380968 517.38 
L 85.380968 18 
" clip-path="url(#pe70ed04803)" style="fill: none; stroke-dasharray: 1.85,0.8; stroke-dashoffset: 0; stroke: #cccccc; stroke-opacity: 0.5; stroke-width: 0.5"/>
     </g>
     <g id="line2d_2">
      <defs>
       <path id="m790f212518" d="M 0 0 
L 0 -6 
" style="stroke: #262626; stroke-width: 0.8"/>
      </defs>
      <g>
       <use xlink:href="#m790f212518" x="85.380968" y="517.38" style="fill: #262626; stroke: #262626; stroke-width: 0.8"/>
      </g>
     </g>
     <g id="text_1">
      <!-- 0 -->
      <g style="fill: #262626" transform="translate(80.385968 535.206875) scale(0.18 -0.18)">
       <defs>
        <path id="SourceHanSansSC-Regular-30" d="M 1779 -83 
C 2669 -83 3238 723 3238 2362 
C 3238 3987 2669 4774 1779 4774 
C 883 4774 320 3987 320 2362 
C 320 723 883 -83 1779 -83 
z
M 1779 390 
C 1248 390 883 986 883 2362 
C 883 3731 1248 4314 1779 4314 
C 2310 4314 2675 3731 2675 2362 
C 2675 986 2310 390 1779 390 
z
" transform="scale(0.015625)"/>
       </defs>
       <use xlink:href="#SourceHanSansSC-Regular-30"/>
      </g>
     </g>
    </g>
    <g id="xtick_2">
     <g id="line2d_3">
      <path d="M 289.990645 517.38 
L 289.990645 18 
" clip-path="url(#pe70ed04803)" style="fill: none; stroke-dasharray: 1.85,0.8; stroke-dashoffset: 0; stroke: #cccccc; stroke-opacity: 0.5; stroke-width: 0.5"/>
     </g>
     <g id="line2d_4">
      <g>
       <use xlink:href="#m790f212518" x="289.990645" y="517.38" style="fill: #262626; stroke: #262626; stroke-width: 0.8"/>
      </g>
     </g>
     <g id="text_2">
      <!-- 5 -->
      <g style="fill: #262626" transform="translate(284.995645 535.206875) scale(0.18 -0.18)">
       <defs>
        <path id="SourceHanSansSC-Regular-35" d="M 1677 -83 
C 2464 -83 3213 499 3213 1523 
C 3213 2560 2573 3021 1798 3021 
C 1517 3021 1306 2950 1094 2835 
L 1216 4192 
L 2982 4192 
L 2982 4691 
L 704 4691 
L 550 2502 
L 864 2304 
C 1133 2483 1331 2579 1645 2579 
C 2234 2579 2618 2182 2618 1510 
C 2618 826 2176 403 1619 403 
C 1075 403 730 653 467 922 
L 173 538 
C 493 224 941 -83 1677 -83 
z
" transform="scale(0.015625)"/>
       </defs>
       <use xlink:href="#SourceHanSansSC-Regular-35"/>
      </g>
     </g>
    </g>
    <g id="xtick_3">
     <g id="line2d_5">
      <path d="M 494.600323 517.38 
L 494.600323 18 
" clip-path="url(#pe70ed04803)" style="fill: none; stroke-dasharray: 1.85,0.8; stroke-dashoffset: 0; stroke: #cccccc; stroke-opacity: 0.5; stroke-width: 0.5"/>
     </g>
     <g id="line2d_6">
      <g>
       <use xlink:href="#m790f212518" x="494.600323" y="517.38" style="fill: #262626; stroke: #262626; stroke-width: 0.8"/>
      </g>
     </g>
     <g id="text_3">
      <!-- 10 -->
      <g style="fill: #262626" transform="translate(484.610323 535.206875) scale(0.18 -0.18)">
       <defs>
        <path id="SourceHanSansSC-Regular-31" d="M 563 0 
L 3136 0 
L 3136 486 
L 2195 486 
L 2195 4691 
L 1747 4691 
C 1491 4544 1190 4435 774 4358 
L 774 3987 
L 1613 3987 
L 1613 486 
L 563 486 
L 563 0 
z
" transform="scale(0.015625)"/>
       </defs>
       <use xlink:href="#SourceHanSansSC-Regular-31"/>
       <use xlink:href="#SourceHanSansSC-Regular-30" x="55.499985"/>
      </g>
     </g>
    </g>
    <g id="xtick_4">
     <g id="line2d_7">
      <path d="M 699.21 517.38 
L 699.21 18 
" clip-path="url(#pe70ed04803)" style="fill: none; stroke-dasharray: 1.85,0.8; stroke-dashoffset: 0; stroke: #cccccc; stroke-opacity: 0.5; stroke-width: 0.5"/>
     </g>
     <g id="line2d_8">
      <g>
       <use xlink:href="#m790f212518" x="699.21" y="517.38" style="fill: #262626; stroke: #262626; stroke-width: 0.8"/>
      </g>
     </g>
     <g id="text_4">
      <!-- 15 -->
      <g style="fill: #262626" transform="translate(689.22 535.206875) scale(0.18 -0.18)">
       <use xlink:href="#SourceHanSansSC-Regular-31"/>
       <use xlink:href="#SourceHanSansSC-Regular-35" x="55.499985"/>
      </g>
     </g>
    </g>
    <g id="xtick_5">
     <g id="line2d_9">
      <defs>
       <path id="mff612e9c23" d="M 0 0 
L 0 -3 
" style="stroke: #262626; stroke-width: 0.6"/>
      </defs>
      <g>
       <use xlink:href="#mff612e9c23" x="126.302903" y="517.38" style="fill: #262626; stroke: #262626; stroke-width: 0.6"/>
      </g>
     </g>
    </g>
    <g id="xtick_6">
     <g id="line2d_10">
      <g>
       <use xlink:href="#mff612e9c23" x="167.224839" y="517.38" style="fill: #262626; stroke: #262626; stroke-width: 0.6"/>
      </g>
     </g>
    </g>
    <g id="xtick_7">
     <g id="line2d_11">
      <g>
       <use xlink:href="#mff612e9c23" x="208.146774" y="517.38" style="fill: #262626; stroke: #262626; stroke-width: 0.6"/>
      </g>
     </g>
    </g>
    <g id="xtick_8">
     <g id="line2d_12">
      <g>
       <use xlink:href="#mff612e9c23" x="249.06871" y="517.38" style="fill: #262626; stroke: #262626; stroke-width: 0.6"/>
      </g>
     </g>
    </g>
    <g id="xtick_9">
     <g id="line2d_13">
      <g>
       <use xlink:href="#mff612e9c23" x="330.912581" y="517.38" style="fill: #262626; stroke: #262626; stroke-width: 0.6"/>
      </g>
     </g>
    </g>
    <g id="xtick_10">
     <g id="line2d_14">
      <g>
       <use xlink:href="#mff612e9c23" x="371.834516" y="517.38" style="fill: #262626; stroke: #262626; stroke-width: 0.6"/>
      </g>
     </g>
    </g>
    <g id="xtick_11">
     <g id="line2d_15">
      <g>
       <use xlink:href="#mff612e9c23" x="412.756452" y="517.38" style="fill: #262626; stroke: #262626; stroke-width: 0.6"/>
      </g>
     </g>
    </g>
    <g id="xtick_12">
     <g id="line2d_16">
      <g>
       <use xlink:href="#mff612e9c23" x="453.678387" y="517.38" style="fill: #262626; stroke: #262626; stroke-width: 0.6"/>
      </g>
     </g>
    </g>
    <g id="xtick_13">
     <g id="line2d_17">
      <g>
       <use xlink:href="#mff612e9c23" x="535.522258" y="517.38" style="fill: #262626; stroke: #262626; stroke-width: 0.6"/>
      </g>
     </g>
    </g>
    <g id="xtick_14">
     <g id="line2d_18">
      <g>
       <use xlink:href="#mff612e9c23" x="576.444194" y="517.38" style="fill: #262626; stroke: #262626; stroke-width: 0.6"/>
      </g>
     </g>
    </g>
    <g id="xtick_15">
     <g id="line2d_19">
      <g>
       <use xlink:href="#mff612e9c23" x="617.366129" y="517.38" style="fill: #262626; stroke: #262626; stroke-width: 0.6"/>
      </g>
     </g>
    </g>
    <g id="xtick_16">
     <g id="line2d_20">
      <g>
       <use xlink:href="#mff612e9c23" x="658.288065" y="517.38" style="fill: #262626; stroke: #262626; stroke-width: 0.6"/>
      </g>
     </g>
    </g>
    <g id="text_5">
     <!-- 定位误差（m） -->
     <g style="fill: #262626" transform="translate(312.805625 559.24875) scale(0.2 -0.2)">
      <defs>
       <path id="SourceHanSansSC-Regular-5b9a" d="M 1920 2368 
L 1434 2419 
C 1299 1261 947 346 237 -211 
C 352 -282 550 -442 627 -531 
C 1050 -160 1363 326 1581 922 
C 2170 -186 3136 -410 4467 -410 
L 5965 -410 
C 5990 -269 6074 -38 6144 77 
C 5830 70 4730 70 4493 70 
C 4115 70 3763 90 3443 147 
L 3443 1440 
L 5350 1440 
L 5350 1888 
L 3443 1888 
L 3443 2938 
L 5088 2938 
L 5088 3405 
L 1350 3405 
L 1350 2938 
L 2944 2938 
L 2944 282 
C 2419 480 2016 858 1766 1530 
C 1830 1792 1882 2074 1920 2368 
z
M 3200 5421 
L 2726 5286 
C 2835 5094 2950 4851 3021 4653 
L 525 4653 
L 525 3258 
L 998 3258 
L 998 4198 
L 5382 4198 
L 5382 3258 
L 5875 3258 
L 5875 4653 
L 3571 4653 
C 3507 4870 3341 5184 3200 5421 
z
" transform="scale(0.015625)"/>
       <path id="SourceHanSansSC-Regular-4f4d" d="M 5850 4211 
L 2362 4211 
L 2362 3744 
L 5850 3744 
L 5850 4211 
z
M 3219 3354 
L 2784 3258 
C 2976 2362 3168 1184 3219 512 
L 3693 653 
C 3629 1306 3430 2458 3219 3354 
z
M 4102 5421 
L 3648 5299 
C 3763 4979 3898 4557 3949 4282 
L 4429 4422 
C 4358 4698 4224 5107 4102 5421 
z
M 6112 218 
L 4794 218 
C 5030 1075 5286 2336 5453 3322 
L 4954 3405 
C 4845 2445 4582 1082 4346 218 
L 2086 218 
L 2086 -243 
L 6112 -243 
L 6112 218 
z
M 1152 -499 
L 1632 -499 
L 1632 3846 
C 1882 4282 2106 4749 2285 5216 
L 1830 5350 
C 1472 4384 870 3424 243 2797 
C 326 2688 467 2438 518 2323 
C 736 2547 947 2810 1152 3098 
L 1152 -499 
z
" transform="scale(0.015625)"/>
       <path id="SourceHanSansSC-Regular-8bef" d="M 3181 3770 
L 3181 4653 
L 5254 4653 
L 5254 3770 
L 3181 3770 
z
M 5728 5075 
L 2733 5075 
L 2733 3347 
L 5728 3347 
L 5728 5075 
z
M 973 5203 
L 653 4902 
C 998 4602 1421 4179 1626 3898 
L 1958 4250 
C 1754 4512 1312 4922 973 5203 
z
M 6150 1632 
L 4358 1632 
C 4390 1850 4416 2086 4429 2336 
L 5907 2336 
L 5907 2771 
L 2554 2771 
L 2554 2336 
L 3974 2336 
C 3962 2080 3936 1850 3898 1632 
L 2342 1632 
L 2342 1203 
L 3789 1203 
C 3578 563 3136 134 2157 -128 
C 2253 -218 2381 -403 2426 -512 
C 3418 -218 3910 237 4166 896 
C 4512 205 5088 -282 5875 -525 
C 5939 -397 6080 -218 6189 -122 
C 5382 77 4800 544 4493 1203 
L 6150 1203 
L 6150 1632 
z
M 1427 3379 
L 282 3379 
L 282 2918 
L 1190 2918 
L 1190 595 
C 1190 333 1056 186 960 122 
C 1043 19 1171 -205 1210 -320 
C 1306 -205 1459 -90 2490 627 
C 2445 723 2387 902 2362 1030 
L 1658 570 
L 1658 3379 
L 1427 3379 
z
" transform="scale(0.015625)"/>
       <path id="SourceHanSansSC-Regular-5dee" d="M 4960 5229 
L 4435 5389 
C 4326 5133 4115 4774 3942 4531 
L 2477 4531 
C 2374 4774 2157 5114 1939 5363 
L 1523 5190 
C 1677 4992 1837 4749 1946 4531 
L 672 4531 
L 672 4090 
L 2816 4090 
C 2778 3898 2733 3718 2682 3539 
L 979 3539 
L 979 3110 
L 2554 3110 
C 2483 2912 2413 2720 2330 2541 
L 384 2541 
L 384 2093 
L 2106 2093 
C 1670 1318 1075 730 250 314 
C 352 218 531 6 602 -96 
C 1286 294 1830 794 2259 1421 
L 2259 1126 
L 3552 1126 
L 3552 211 
L 1414 211 
L 1414 -237 
L 5997 -237 
L 5997 211 
L 4051 211 
L 4051 1126 
L 5530 1126 
L 5530 1574 
L 2362 1574 
C 2470 1741 2566 1914 2656 2093 
L 6016 2093 
L 6016 2541 
L 2854 2541 
C 2931 2720 3002 2912 3066 3110 
L 5459 3110 
L 5459 3539 
L 3187 3539 
C 3238 3718 3283 3898 3322 4090 
L 5773 4090 
L 5773 4531 
L 4480 4531 
C 4634 4742 4806 4992 4960 5229 
z
" transform="scale(0.015625)"/>
       <path id="SourceHanSansSC-Regular-ff08" d="M 4448 2432 
C 4448 1184 4954 166 5722 -614 
L 6106 -416 
C 5370 346 4915 1293 4915 2432 
C 4915 3571 5370 4518 6106 5280 
L 5722 5478 
C 4954 4698 4448 3680 4448 2432 
z
" transform="scale(0.015625)"/>
       <path id="SourceHanSansSC-Regular-6d" d="M 589 0 
L 1178 0 
L 1178 2522 
C 1491 2880 1786 3053 2048 3053 
C 2490 3053 2694 2778 2694 2125 
L 2694 0 
L 3277 0 
L 3277 2522 
C 3603 2880 3885 3053 4154 3053 
C 4595 3053 4800 2778 4800 2125 
L 4800 0 
L 5382 0 
L 5382 2202 
C 5382 3085 5043 3565 4333 3565 
C 3904 3565 3546 3290 3181 2899 
C 3040 3309 2758 3565 2221 3565 
C 1805 3565 1446 3302 1139 2970 
L 1126 2970 
L 1069 3475 
L 589 3475 
L 589 0 
z
" transform="scale(0.015625)"/>
       <path id="SourceHanSansSC-Regular-ff09" d="M 1952 2432 
C 1952 3680 1446 4698 678 5478 
L 294 5280 
C 1030 4518 1485 3571 1485 2432 
C 1485 1293 1030 346 294 -416 
L 678 -614 
C 1446 166 1952 1184 1952 2432 
z
" transform="scale(0.015625)"/>
      </defs>
      <use xlink:href="#SourceHanSansSC-Regular-5b9a"/>
      <use xlink:href="#SourceHanSansSC-Regular-4f4d" x="99.999985"/>
      <use xlink:href="#SourceHanSansSC-Regular-8bef" x="199.999969"/>
      <use xlink:href="#SourceHanSansSC-Regular-5dee" x="299.999954"/>
      <use xlink:href="#SourceHanSansSC-Regular-ff08" x="399.999939"/>
      <use xlink:href="#SourceHanSansSC-Regular-6d" x="499.999924"/>
      <use xlink:href="#SourceHanSansSC-Regular-ff09" x="592.599915"/>
     </g>
    </g>
   </g>
   <g id="matplotlib.axis_2">
    <g id="ytick_1">
     <g id="line2d_21">
      <path d="M 64.92 517.38 
L 699.21 517.38 
" clip-path="url(#pe70ed04803)" style="fill: none; stroke-dasharray: 1.85,0.8; stroke-dashoffset: 0; stroke: #cccccc; stroke-opacity: 0.5; stroke-width: 0.5"/>
     </g>
     <g id="line2d_22">
      <defs>
       <path id="m89a1726d41" d="M 0 0 
L 6 0 
" style="stroke: #262626; stroke-width: 0.8"/>
      </defs>
      <g>
       <use xlink:href="#m89a1726d41" x="64.92" y="517.38" style="fill: #262626; stroke: #262626; stroke-width: 0.8"/>
      </g>
     </g>
     <g id="text_6">
      <!-- 0.0 -->
      <g style="fill: #262626" transform="translate(36.436563 524.543437) scale(0.18 -0.18)">
       <defs>
        <path id="SourceHanSansSC-Regular-2e" d="M 890 -83 
C 1120 -83 1312 96 1312 358 
C 1312 627 1120 806 890 806 
C 653 806 467 627 467 358 
C 467 96 653 -83 890 -83 
z
" transform="scale(0.015625)"/>
       </defs>
       <use xlink:href="#SourceHanSansSC-Regular-30"/>
       <use xlink:href="#SourceHanSansSC-Regular-2e" x="55.499985"/>
       <use xlink:href="#SourceHanSansSC-Regular-30" x="83.299973"/>
      </g>
     </g>
    </g>
    <g id="ytick_2">
     <g id="line2d_23">
      <path d="M 64.92 417.504 
L 699.21 417.504 
" clip-path="url(#pe70ed04803)" style="fill: none; stroke-dasharray: 1.85,0.8; stroke-dashoffset: 0; stroke: #cccccc; stroke-opacity: 0.5; stroke-width: 0.5"/>
     </g>
     <g id="line2d_24">
      <g>
       <use xlink:href="#m89a1726d41" x="64.92" y="417.504" style="fill: #262626; stroke: #262626; stroke-width: 0.8"/>
      </g>
     </g>
     <g id="text_7">
      <!-- 0.2 -->
      <g style="fill: #262626" transform="translate(36.436563 424.667438) scale(0.18 -0.18)">
       <defs>
        <path id="SourceHanSansSC-Regular-32" d="M 282 0 
L 3232 0 
L 3232 506 
L 1894 506 
C 1658 506 1376 480 1126 461 
C 2240 1504 3008 2445 3008 3398 
C 3008 4230 2477 4774 1638 4774 
C 1050 4774 646 4493 269 4077 
L 595 3757 
C 858 4070 1184 4301 1568 4301 
C 2150 4301 2432 3910 2432 3373 
C 2432 2573 1773 1632 282 371 
L 282 0 
z
" transform="scale(0.015625)"/>
       </defs>
       <use xlink:href="#SourceHanSansSC-Regular-30"/>
       <use xlink:href="#SourceHanSansSC-Regular-2e" x="55.499985"/>
       <use xlink:href="#SourceHanSansSC-Regular-32" x="83.299973"/>
      </g>
     </g>
    </g>
    <g id="ytick_3">
     <g id="line2d_25">
      <path d="M 64.92 317.628 
L 699.21 317.628 
" clip-path="url(#pe70ed04803)" style="fill: none; stroke-dasharray: 1.85,0.8; stroke-dashoffset: 0; stroke: #cccccc; stroke-opacity: 0.5; stroke-width: 0.5"/>
     </g>
     <g id="line2d_26">
      <g>
       <use xlink:href="#m89a1726d41" x="64.92" y="317.628" style="fill: #262626; stroke: #262626; stroke-width: 0.8"/>
      </g>
     </g>
     <g id="text_8">
      <!-- 0.4 -->
      <g style="fill: #262626" transform="translate(36.436563 324.791438) scale(0.18 -0.18)">
       <defs>
        <path id="SourceHanSansSC-Regular-34" d="M 2176 0 
L 2726 0 
L 2726 1293 
L 3354 1293 
L 3354 1760 
L 2726 1760 
L 2726 4691 
L 2080 4691 
L 128 1677 
L 128 1293 
L 2176 1293 
L 2176 0 
z
M 2176 1760 
L 736 1760 
L 1805 3360 
C 1939 3590 2067 3827 2182 4051 
L 2208 4051 
C 2195 3814 2176 3430 2176 3200 
L 2176 1760 
z
" transform="scale(0.015625)"/>
       </defs>
       <use xlink:href="#SourceHanSansSC-Regular-30"/>
       <use xlink:href="#SourceHanSansSC-Regular-2e" x="55.499985"/>
       <use xlink:href="#SourceHanSansSC-Regular-34" x="83.299973"/>
      </g>
     </g>
    </g>
    <g id="ytick_4">
     <g id="line2d_27">
      <path d="M 64.92 217.752 
L 699.21 217.752 
" clip-path="url(#pe70ed04803)" style="fill: none; stroke-dasharray: 1.85,0.8; stroke-dashoffset: 0; stroke: #cccccc; stroke-opacity: 0.5; stroke-width: 0.5"/>
     </g>
     <g id="line2d_28">
      <g>
       <use xlink:href="#m89a1726d41" x="64.92" y="217.752" style="fill: #262626; stroke: #262626; stroke-width: 0.8"/>
      </g>
     </g>
     <g id="text_9">
      <!-- 0.6 -->
      <g style="fill: #262626" transform="translate(36.436563 224.915437) scale(0.18 -0.18)">
       <defs>
        <path id="SourceHanSansSC-Regular-36" d="M 1926 -83 
C 2656 -83 3277 531 3277 1440 
C 3277 2426 2765 2912 1971 2912 
C 1606 2912 1197 2701 909 2349 
C 934 3802 1466 4294 2118 4294 
C 2400 4294 2682 4154 2861 3936 
L 3194 4294 
C 2931 4576 2579 4774 2093 4774 
C 1184 4774 358 4077 358 2240 
C 358 691 1030 -83 1926 -83 
z
M 922 1882 
C 1229 2317 1587 2477 1875 2477 
C 2445 2477 2720 2074 2720 1440 
C 2720 800 2374 378 1926 378 
C 1338 378 986 909 922 1882 
z
" transform="scale(0.015625)"/>
       </defs>
       <use xlink:href="#SourceHanSansSC-Regular-30"/>
       <use xlink:href="#SourceHanSansSC-Regular-2e" x="55.499985"/>
       <use xlink:href="#SourceHanSansSC-Regular-36" x="83.299973"/>
      </g>
     </g>
    </g>
    <g id="ytick_5">
     <g id="line2d_29">
      <path d="M 64.92 117.876 
L 699.21 117.876 
" clip-path="url(#pe70ed04803)" style="fill: none; stroke-dasharray: 1.85,0.8; stroke-dashoffset: 0; stroke: #cccccc; stroke-opacity: 0.5; stroke-width: 0.5"/>
     </g>
     <g id="line2d_30">
      <g>
       <use xlink:href="#m89a1726d41" x="64.92" y="117.876" style="fill: #262626; stroke: #262626; stroke-width: 0.8"/>
      </g>
     </g>
     <g id="text_10">
      <!-- 0.8 -->
      <g style="fill: #262626" transform="translate(36.436563 125.039438) scale(0.18 -0.18)">
       <defs>
        <path id="SourceHanSansSC-Regular-38" d="M 1792 -83 
C 2669 -83 3258 448 3258 1126 
C 3258 1773 2880 2125 2470 2362 
L 2470 2394 
C 2746 2611 3091 3034 3091 3526 
C 3091 4250 2605 4762 1805 4762 
C 1075 4762 518 4282 518 3571 
C 518 3078 813 2726 1152 2490 
L 1152 2464 
C 723 2234 294 1792 294 1165 
C 294 442 922 -83 1792 -83 
z
M 2112 2547 
C 1555 2765 1050 3014 1050 3571 
C 1050 4026 1363 4326 1798 4326 
C 2298 4326 2592 3962 2592 3494 
C 2592 3149 2426 2829 2112 2547 
z
M 1798 352 
C 1235 352 813 717 813 1216 
C 813 1664 1082 2035 1459 2278 
C 2125 2010 2701 1779 2701 1146 
C 2701 678 2342 352 1798 352 
z
" transform="scale(0.015625)"/>
       </defs>
       <use xlink:href="#SourceHanSansSC-Regular-30"/>
       <use xlink:href="#SourceHanSansSC-Regular-2e" x="55.499985"/>
       <use xlink:href="#SourceHanSansSC-Regular-38" x="83.299973"/>
      </g>
     </g>
    </g>
    <g id="ytick_6">
     <g id="line2d_31">
      <path d="M 64.92 18 
L 699.21 18 
" clip-path="url(#pe70ed04803)" style="fill: none; stroke-dasharray: 1.85,0.8; stroke-dashoffset: 0; stroke: #cccccc; stroke-opacity: 0.5; stroke-width: 0.5"/>
     </g>
     <g id="line2d_32">
      <g>
       <use xlink:href="#m89a1726d41" x="64.92" y="18" style="fill: #262626; stroke: #262626; stroke-width: 0.8"/>
      </g>
     </g>
     <g id="text_11">
      <!-- 1.0 -->
      <g style="fill: #262626" transform="translate(36.436563 25.163438) scale(0.18 -0.18)">
       <use xlink:href="#SourceHanSansSC-Regular-31"/>
       <use xlink:href="#SourceHanSansSC-Regular-2e" x="55.499985"/>
       <use xlink:href="#SourceHanSansSC-Regular-30" x="83.299973"/>
      </g>
     </g>
    </g>
    <g id="ytick_7">
     <g id="line2d_33">
      <defs>
       <path id="m09cfbf9bd7" d="M 0 0 
L 3 0 
" style="stroke: #262626; stroke-width: 0.6"/>
      </defs>
      <g>
       <use xlink:href="#m09cfbf9bd7" x="64.92" y="492.411" style="fill: #262626; stroke: #262626; stroke-width: 0.6"/>
      </g>
     </g>
    </g>
    <g id="ytick_8">
     <g id="line2d_34">
      <g>
       <use xlink:href="#m09cfbf9bd7" x="64.92" y="467.442" style="fill: #262626; stroke: #262626; stroke-width: 0.6"/>
      </g>
     </g>
    </g>
    <g id="ytick_9">
     <g id="line2d_35">
      <g>
       <use xlink:href="#m09cfbf9bd7" x="64.92" y="442.473" style="fill: #262626; stroke: #262626; stroke-width: 0.6"/>
      </g>
     </g>
    </g>
    <g id="ytick_10">
     <g id="line2d_36">
      <g>
       <use xlink:href="#m09cfbf9bd7" x="64.92" y="392.535" style="fill: #262626; stroke: #262626; stroke-width: 0.6"/>
      </g>
     </g>
    </g>
    <g id="ytick_11">
     <g id="line2d_37">
      <g>
       <use xlink:href="#m09cfbf9bd7" x="64.92" y="367.566" style="fill: #262626; stroke: #262626; stroke-width: 0.6"/>
      </g>
     </g>
    </g>
    <g id="ytick_12">
     <g id="line2d_38">
      <g>
       <use xlink:href="#m09cfbf9bd7" x="64.92" y="342.597" style="fill: #262626; stroke: #262626; stroke-width: 0.6"/>
      </g>
     </g>
    </g>
    <g id="ytick_13">
     <g id="line2d_39">
      <g>
       <use xlink:href="#m09cfbf9bd7" x="64.92" y="292.659" style="fill: #262626; stroke: #262626; stroke-width: 0.6"/>
      </g>
     </g>
    </g>
    <g id="ytick_14">
     <g id="line2d_40">
      <g>
       <use xlink:href="#m09cfbf9bd7" x="64.92" y="267.69" style="fill: #262626; stroke: #262626; stroke-width: 0.6"/>
      </g>
     </g>
    </g>
    <g id="ytick_15">
     <g id="line2d_41">
      <g>
       <use xlink:href="#m09cfbf9bd7" x="64.92" y="242.721" style="fill: #262626; stroke: #262626; stroke-width: 0.6"/>
      </g>
     </g>
    </g>
    <g id="ytick_16">
     <g id="line2d_42">
      <g>
       <use xlink:href="#m09cfbf9bd7" x="64.92" y="192.783" style="fill: #262626; stroke: #262626; stroke-width: 0.6"/>
      </g>
     </g>
    </g>
    <g id="ytick_17">
     <g id="line2d_43">
      <g>
       <use xlink:href="#m09cfbf9bd7" x="64.92" y="167.814" style="fill: #262626; stroke: #262626; stroke-width: 0.6"/>
      </g>
     </g>
    </g>
    <g id="ytick_18">
     <g id="line2d_44">
      <g>
       <use xlink:href="#m09cfbf9bd7" x="64.92" y="142.845" style="fill: #262626; stroke: #262626; stroke-width: 0.6"/>
      </g>
     </g>
    </g>
    <g id="ytick_19">
     <g id="line2d_45">
      <g>
       <use xlink:href="#m09cfbf9bd7" x="64.92" y="92.907" style="fill: #262626; stroke: #262626; stroke-width: 0.6"/>
      </g>
     </g>
    </g>
    <g id="ytick_20">
     <g id="line2d_46">
      <g>
       <use xlink:href="#m09cfbf9bd7" x="64.92" y="67.938" style="fill: #262626; stroke: #262626; stroke-width: 0.6"/>
      </g>
     </g>
    </g>
    <g id="ytick_21">
     <g id="line2d_47">
      <g>
       <use xlink:href="#m09cfbf9bd7" x="64.92" y="42.969" style="fill: #262626; stroke: #262626; stroke-width: 0.6"/>
      </g>
     </g>
    </g>
    <g id="text_12">
     <!-- 概率 -->
     <g style="fill: #262626" transform="translate(27.855313 287.69) rotate(-90) scale(0.2 -0.2)">
      <defs>
       <path id="SourceHanSansSC-Regular-6982" d="M 5280 90 
L 5280 2048 
L 5082 2048 
L 5158 2381 
L 6086 2381 
L 6086 2790 
L 5235 2790 
C 5344 3456 5370 4083 5370 4602 
L 5990 4602 
L 5990 5024 
L 3987 5024 
L 3987 4602 
L 4979 4602 
C 4979 4090 4960 3456 4838 2790 
L 4365 2790 
C 4448 3219 4557 3904 4614 4211 
L 4224 4211 
C 4186 3910 4045 2989 3987 2842 
C 3955 2733 3910 2701 3827 2675 
C 3878 2592 3962 2400 3987 2304 
C 4045 2349 4230 2381 4454 2381 
L 4755 2381 
C 4544 1472 4128 525 3328 -294 
C 3443 -346 3603 -454 3686 -531 
C 4269 83 4653 774 4902 1472 
L 4902 115 
C 4902 -166 4928 -262 5011 -339 
C 5094 -416 5222 -442 5344 -442 
C 5402 -442 5542 -442 5619 -442 
C 5722 -442 5837 -416 5907 -371 
C 5984 -314 6035 -230 6067 -109 
C 6093 13 6118 378 6118 691 
C 6022 723 5901 787 5830 851 
C 5837 531 5824 256 5818 141 
C 5798 64 5779 13 5747 -13 
C 5715 -38 5658 -45 5600 -45 
C 5549 -45 5472 -45 5434 -45 
C 5382 -45 5338 -32 5318 -13 
C 5286 6 5280 51 5280 90 
z
M 3341 3859 
L 2560 3859 
L 2560 4602 
L 3341 4602 
L 3341 3859 
z
M 3341 3501 
L 3341 2714 
L 2560 2714 
L 2560 3501 
L 3341 3501 
z
M 3712 5005 
L 2170 5005 
L 2170 960 
C 2170 666 2010 461 1907 378 
C 1990 301 2112 141 2157 45 
C 2240 154 2394 269 3437 922 
C 3494 768 3539 634 3571 518 
L 3923 691 
C 3821 1018 3584 1562 3360 1971 
L 3034 1830 
C 3123 1651 3219 1446 3302 1248 
L 2560 826 
L 2560 2317 
L 3712 2317 
L 3712 5005 
z
M 1446 5376 
L 1011 5376 
L 1011 4019 
L 339 4019 
L 339 3571 
L 998 3571 
C 845 2694 531 1664 192 1101 
C 269 998 384 819 442 691 
C 653 1050 851 1587 1011 2163 
L 1011 -506 
L 1446 -506 
L 1446 2656 
C 1587 2374 1734 2054 1805 1869 
L 2074 2259 
C 1990 2426 1587 3117 1446 3328 
L 1446 3571 
L 1997 3571 
L 1997 4019 
L 1446 4019 
L 1446 5376 
z
" transform="scale(0.015625)"/>
       <path id="SourceHanSansSC-Regular-7387" d="M 5709 3872 
L 5306 4115 
C 5082 3859 4685 3507 4397 3296 
L 4749 3066 
C 5043 3270 5414 3571 5709 3872 
z
M 358 2157 
L 602 1773 
C 1024 1984 1542 2259 2042 2528 
L 1946 2886 
C 1357 2605 755 2323 358 2157 
z
M 870 4096 
L 544 3834 
C 890 3616 1312 3296 1510 3078 
L 1856 3373 
C 1638 3590 1216 3898 870 4096 
z
M 4672 2867 
L 4333 2611 
C 4774 2342 5325 1958 5594 1702 
L 5952 1997 
C 5670 2253 5101 2624 4672 2867 
z
M 6080 1293 
L 3456 1293 
L 3456 1818 
L 2944 1818 
L 2944 1293 
L 326 1293 
L 326 845 
L 2944 845 
L 2944 -512 
L 3456 -512 
L 3456 845 
L 6080 845 
L 6080 1293 
z
M 3251 5421 
L 2784 5299 
C 2880 5152 2995 4966 3078 4800 
L 454 4800 
L 454 4358 
L 2797 4358 
C 2605 4051 2394 3789 2310 3706 
C 2214 3590 2118 3520 2029 3501 
C 2074 3386 2138 3187 2163 3091 
C 2259 3130 2400 3162 3136 3219 
C 2829 2906 2554 2656 2426 2554 
C 2208 2374 2042 2253 1901 2234 
C 1952 2112 2016 1901 2035 1818 
C 2170 1875 2394 1907 4070 2067 
C 4147 1939 4205 1824 4250 1728 
L 4627 1894 
C 4493 2195 4173 2656 3885 2982 
L 3526 2835 
C 3635 2707 3744 2566 3846 2419 
L 2701 2330 
C 3264 2778 3834 3341 4339 3936 
L 3955 4160 
C 3821 3981 3667 3802 3520 3629 
L 2701 3584 
C 2906 3808 3117 4077 3302 4358 
L 6022 4358 
L 6022 4800 
L 3642 4800 
C 3552 4986 3398 5235 3251 5421 
z
" transform="scale(0.015625)"/>
      </defs>
      <use xlink:href="#SourceHanSansSC-Regular-6982"/>
      <use xlink:href="#SourceHanSansSC-Regular-7387" x="99.999985"/>
     </g>
    </g>
   </g>
   <g id="line2d_48">
    <path d="M 85.380968 517.38 
L 86.66917 516.176675 
L 86.708226 514.973349 
L 87.149899 512.566699 
L 87.600519 511.363374 
L 87.78076 510.160048 
L 87.813878 508.956723 
L 88.153204 506.550072 
L 88.875619 490.906844 
L 89.22537 489.703518 
L 90.048968 475.263616 
L 90.25202 466.840337 
L 90.417404 465.637012 
L 90.593801 462.027035 
L 90.782827 460.823711 
L 90.86206 454.807081 
L 91.113364 449.993783 
L 91.194305 445.180485 
L 91.511338 442.773828 
L 91.883635 434.350557 
L 92.138448 431.9439 
L 92.267751 427.130602 
L 92.484384 425.927278 
L 92.583033 422.317304 
L 92.685827 419.910648 
L 93.477295 403.064097 
L 93.621173 401.860772 
L 93.768222 395.844142 
L 93.916247 394.640818 
L 94.227512 393.437493 
L 94.334308 389.827512 
L 94.454163 386.217539 
L 94.655863 382.607565 
L 95.137507 374.184294 
L 95.440508 372.980969 
L 96.539828 353.727762 
L 96.794537 347.71114 
L 96.976237 346.5078 
L 97.720296 323.64462 
L 98.110517 321.237971 
L 98.30427 314.018023 
L 98.651561 312.814699 
L 99.110292 305.594752 
L 99.333177 298.37479 
L 99.689283 294.764816 
L 99.826282 291.154843 
L 99.936191 289.951518 
L 100.185316 288.748194 
L 100.442004 285.13822 
L 100.861692 282.731571 
L 101.316877 274.308285 
L 101.501803 269.494987 
L 101.610669 265.884998 
L 101.735407 264.681674 
L 101.750513 261.0717 
L 101.916043 259.868376 
L 101.918177 258.665051 
L 102.212873 257.461727 
L 102.626421 250.24178 
L 102.706388 247.835131 
L 103.061283 245.428482 
L 103.166969 241.818508 
L 103.386966 240.615184 
L 103.508564 237.00521 
L 103.621098 233.395237 
L 103.953115 229.785263 
L 104.067422 227.378614 
L 104.205986 226.175289 
L 104.667479 224.971965 
L 104.959757 222.565316 
L 104.983215 221.361962 
L 105.168199 220.158637 
L 105.51124 211.735366 
L 105.74619 210.532041 
L 105.903409 206.922067 
L 106.05007 205.718743 
L 106.124522 202.108769 
L 106.762451 197.295471 
L 106.871366 196.092147 
L 107.117012 194.888822 
L 107.139176 193.685498 
L 107.315523 192.482173 
L 107.453281 187.668875 
L 107.709629 185.262226 
L 108.161155 178.042279 
L 108.749419 175.6356 
L 109.368511 168.415653 
L 109.435512 167.212329 
L 109.647817 166.009004 
L 109.688419 164.80568 
L 110.087327 162.399031 
L 110.388324 158.789057 
L 110.525377 156.382408 
L 110.816712 155.179084 
L 110.887586 153.975759 
L 111.369645 152.772435 
L 111.400749 151.56911 
L 111.5939 150.365786 
L 111.624182 146.755812 
L 111.89988 145.552488 
L 112.021388 143.145839 
L 112.108762 140.73919 
L 112.4337 138.332541 
L 112.73826 137.129216 
L 112.822503 134.722567 
L 112.83985 132.315918 
L 112.978203 131.112564 
L 113.546954 128.705915 
L 114.295015 127.50259 
L 114.432412 125.095941 
L 114.751758 122.689292 
L 114.767073 121.485968 
L 115.127907 119.079319 
L 115.131325 117.875994 
L 115.48987 116.67267 
L 115.78195 113.062696 
L 115.882018 110.656047 
L 115.929171 109.452722 
L 116.115887 108.249398 
L 116.288181 104.639424 
L 116.353989 103.4361 
L 116.73847 102.232775 
L 116.801282 101.029451 
L 117.453761 98.622802 
L 118.133883 97.419477 
L 118.166421 95.012828 
L 118.398649 93.809504 
L 118.478563 92.606179 
L 119.046413 91.402855 
L 119.261553 88.996206 
L 119.577231 87.792881 
L 119.833974 85.386202 
L 119.95426 82.979553 
L 120.224802 80.572904 
L 120.612205 79.36958 
L 120.663083 78.166255 
L 121.054255 76.962931 
L 121.280083 75.759606 
L 121.636004 74.556282 
L 121.686633 73.352957 
L 121.892762 72.149633 
L 123.517355 70.946308 
L 123.572499 69.742984 
L 124.265623 68.539659 
L 125.188825 63.726361 
L 125.647875 62.523037 
L 125.778101 61.319712 
L 126.307425 60.116388 
L 126.381429 58.913063 
L 127.58368 57.709739 
L 127.896504 56.506414 
L 128.073146 54.099765 
L 128.881535 52.896441 
L 129.328556 51.693116 
L 129.817315 48.083143 
L 131.233907 46.879818 
L 131.902358 45.676494 
L 133.228873 44.473169 
L 133.726374 43.269845 
L 134.797658 42.06652 
L 136.371463 40.863195 
L 136.767071 39.659841 
L 136.966236 38.456517 
L 137.215848 33.643219 
L 137.990118 32.439894 
L 138.009992 30.033245 
L 138.8044 27.626596 
L 138.932001 25.219947 
L 142.828186 24.016623 
L 147.613071 22.813298 
L 148.901268 21.609974 
L 177.103218 20.406649 
L 260.286225 19.203325 
L 431.192311 18 
L 431.192311 18 
" clip-path="url(#pe70ed04803)" style="fill: none; stroke: #1f77b4; stroke-width: 2; stroke-linecap: round"/>
   </g>
   <g id="line2d_49">
    <path d="M 85.380968 517.38 
L 88.369063 516.176675 
L 89.609084 514.973349 
L 89.864337 513.770024 
L 90.872555 512.566699 
L 90.878366 511.363374 
L 90.999199 510.160048 
L 91.008217 508.956723 
L 91.247569 507.753397 
L 91.7529 506.550072 
L 91.8455 505.346747 
L 92.364472 504.143422 
L 92.588996 502.940097 
L 92.612605 501.73677 
L 93.369089 500.533446 
L 93.712518 494.516819 
L 93.887152 493.313495 
L 93.892858 492.110168 
L 94.0225 490.906844 
L 94.040059 489.703518 
L 94.97219 487.296867 
L 95.188427 486.09354 
L 95.349902 481.280242 
L 95.990879 477.670265 
L 96.148234 476.466941 
L 96.330015 470.450314 
L 96.586468 469.24699 
L 96.679366 464.433688 
L 97.236455 462.027035 
L 97.255857 459.620386 
L 97.493784 457.213733 
L 97.512406 454.807081 
L 97.977615 453.603756 
L 98.031632 452.400432 
L 98.42134 451.197107 
L 98.450905 449.993783 
L 98.697135 448.790458 
L 98.780681 446.383809 
L 99.400467 441.570504 
L 99.801157 435.553881 
L 100.11111 434.350557 
L 100.130043 433.147232 
L 100.291139 431.9439 
L 100.393355 429.537251 
L 100.5834 428.333927 
L 101.251234 427.130602 
L 101.611102 424.723953 
L 101.733919 417.503999 
L 101.755964 416.300674 
L 102.03909 415.097349 
L 102.12543 412.6907 
L 102.324179 411.487376 
L 102.472139 407.877395 
L 102.624018 405.470746 
L 102.938667 404.267421 
L 102.94263 403.064097 
L 103.339282 399.454123 
L 103.378448 398.250799 
L 103.664585 397.047467 
L 103.850991 393.437493 
L 104.118903 389.827512 
L 104.155504 387.420863 
L 104.52313 386.217539 
L 104.676517 382.607565 
L 104.814229 380.200916 
L 104.964053 378.997592 
L 105.318151 377.794267 
L 105.642949 371.777645 
L 106.165372 368.167656 
L 106.292456 362.151034 
L 106.354915 360.947709 
L 106.696358 359.744385 
L 106.846548 358.54106 
L 107.002331 353.727762 
L 107.034886 352.524438 
L 107.341507 351.321113 
L 107.400488 350.117789 
L 107.683001 347.71114 
L 107.968829 340.491178 
L 108.308133 339.287853 
L 108.337097 336.881204 
L 108.603876 334.474555 
L 109.097447 333.271231 
L 109.167409 329.661257 
L 109.438109 328.457933 
L 109.626333 326.051283 
L 110.04584 323.64462 
L 110.158201 317.627997 
L 110.190388 316.424673 
L 110.794036 315.221348 
L 110.969002 314.018023 
L 111.167902 309.204725 
L 111.393303 308.001401 
L 111.931647 292.358167 
L 112.188776 288.748194 
L 112.203069 287.544869 
L 112.485341 286.341545 
L 112.685992 283.934896 
L 113.072444 280.324922 
L 113.099162 279.121598 
L 113.613515 275.511609 
L 113.747177 273.10496 
L 113.863395 271.901636 
L 114.471213 270.698311 
L 114.927017 269.494987 
L 115.119692 265.884998 
L 115.296396 263.478349 
L 115.622201 262.275025 
L 115.961173 253.851753 
L 116.067844 251.445104 
L 116.120592 250.24178 
L 116.481414 247.835131 
L 116.618328 245.428482 
L 116.889523 243.021833 
L 117.00938 240.615184 
L 117.107075 238.208535 
L 117.239239 235.801886 
L 117.78637 232.191912 
L 117.856078 229.785263 
L 118.076446 228.581938 
L 118.290527 226.175289 
L 118.543368 224.971965 
L 118.550361 223.76864 
L 118.749107 221.361962 
L 119.402566 206.922067 
L 119.449851 204.515418 
L 119.648697 202.108769 
L 119.686094 199.70212 
L 119.84284 198.498796 
L 119.883847 197.295471 
L 120.065875 196.092147 
L 120.167273 192.482173 
L 120.4989 186.465551 
L 120.54489 185.262226 
L 120.921734 184.058902 
L 121.220229 181.652253 
L 121.318099 179.245604 
L 121.443959 176.838925 
L 122.157721 169.618978 
L 122.189664 168.415653 
L 122.439114 166.009004 
L 123.009743 159.992382 
L 123.344888 156.382408 
L 123.591273 151.56911 
L 124.046362 150.365786 
L 124.157231 146.755812 
L 124.798831 145.552488 
L 124.967519 144.349163 
L 125.06998 141.942514 
L 125.187169 139.535865 
L 125.221926 138.332541 
L 125.720618 137.129216 
L 125.921173 134.722567 
L 126.101674 131.112564 
L 126.119165 129.909239 
L 126.385239 128.705915 
L 126.469413 127.50259 
L 126.869359 126.299266 
L 126.925659 125.095941 
L 127.795738 121.485968 
L 127.829218 120.282643 
L 128.22189 119.079319 
L 128.708639 115.469345 
L 129.029727 114.266021 
L 129.192574 110.656047 
L 129.853809 108.249398 
L 130.797424 107.046073 
L 131.178495 105.842749 
L 131.376792 104.639424 
L 134.518616 103.4361 
L 135.489344 102.232775 
L 135.491012 101.029451 
L 135.819891 99.826126 
L 135.958897 98.622802 
L 136.515611 97.419477 
L 137.438414 96.216153 
L 137.984103 95.012828 
L 138.36156 93.809504 
L 139.542912 92.606179 
L 140.167165 91.402855 
L 140.273224 90.19953 
L 140.819747 88.996206 
L 141.851268 87.792881 
L 142.491663 86.589557 
L 142.563584 85.386202 
L 143.825418 84.182878 
L 144.140457 82.979553 
L 145.21679 81.776229 
L 145.692836 80.572904 
L 146.824474 79.36958 
L 148.942899 78.166255 
L 149.656712 76.962931 
L 149.825896 75.759606 
L 150.727406 74.556282 
L 151.418872 73.352957 
L 152.857036 72.149633 
L 155.837882 70.946308 
L 159.346918 69.742984 
L 161.728486 68.539659 
L 166.709147 67.336335 
L 167.565186 66.13301 
L 176.392639 64.929686 
L 178.151589 63.726361 
L 178.286132 62.523037 
L 179.212916 61.319712 
L 184.66072 58.913063 
L 186.368028 57.709739 
L 186.84125 56.506414 
L 187.129771 55.30309 
L 188.515289 54.099765 
L 188.991984 51.693116 
L 190.855914 50.489792 
L 195.767381 49.286467 
L 197.642073 48.083143 
L 199.902256 46.879818 
L 204.772325 45.676494 
L 204.813244 44.473169 
L 210.784223 43.269845 
L 218.580546 42.06652 
L 221.539249 40.863195 
L 224.873403 39.659841 
L 225.30877 38.456517 
L 226.028208 37.253192 
L 228.019207 36.049868 
L 237.990255 34.846543 
L 238.25655 33.643219 
L 244.474292 32.439894 
L 253.285081 31.23657 
L 264.62387 30.033245 
L 283.571557 28.829921 
L 321.252367 27.626596 
L 408.271463 26.423272 
L 411.47729 25.219947 
L 421.585583 24.016623 
L 462.072181 22.813298 
L 488.594815 21.609974 
L 502.174761 20.406649 
L 527.772162 19.203325 
L 631.433083 18 
L 631.433083 18 
" clip-path="url(#pe70ed04803)" style="fill: none; stroke: #ff7f0e; stroke-width: 2; stroke-linecap: round"/>
   </g>
   <g id="line2d_50">
    <path d="M 85.380968 517.38 
L 86.943145 516.176675 
L 87.510169 514.973349 
L 87.511198 513.770024 
L 87.754946 512.566699 
L 88.828639 511.363374 
L 89.466331 510.160048 
L 90.256113 507.753397 
L 90.59121 506.550072 
L 90.79024 505.346747 
L 92.005323 504.143422 
L 92.352516 502.940097 
L 92.870168 501.73677 
L 93.02566 500.533446 
L 93.448157 499.330121 
L 93.585181 496.92347 
L 93.811035 495.720144 
L 94.707263 494.516819 
L 94.769024 493.313495 
L 95.698236 489.703518 
L 96.09217 488.500193 
L 96.283228 487.296867 
L 96.613908 486.09354 
L 96.948056 482.483567 
L 97.396456 481.280242 
L 97.978828 476.466941 
L 98.015484 475.263616 
L 99.045656 472.856963 
L 99.404392 471.653639 
L 99.416645 470.450314 
L 99.576374 469.24699 
L 100.036781 468.043662 
L 100.715825 459.620386 
L 100.731101 458.417062 
L 100.901267 457.213733 
L 101.310257 456.010409 
L 101.315656 454.807081 
L 102.013206 449.993783 
L 102.364551 448.790458 
L 102.439344 445.180485 
L 103.391433 443.97716 
L 103.429146 442.773828 
L 104.025744 441.570504 
L 104.185514 440.367179 
L 104.519008 439.163855 
L 104.748985 435.553881 
L 105.035503 433.147232 
L 105.131343 430.740576 
L 105.139226 429.537251 
L 105.442767 428.333927 
L 105.448976 427.130602 
L 106.56314 425.927278 
L 106.919615 423.520629 
L 106.948948 422.317304 
L 107.144067 421.113979 
L 107.350227 417.503999 
L 107.595902 415.097349 
L 107.623455 412.6907 
L 108.025603 411.487376 
L 108.099543 410.284051 
L 108.612342 409.080719 
L 108.922227 407.877395 
L 109.053494 404.267421 
L 109.30503 403.064097 
L 109.328212 401.860772 
L 109.525187 400.657448 
L 109.53439 399.454123 
L 109.8689 398.250799 
L 109.920385 397.047467 
L 110.21798 395.844142 
L 110.232422 394.640818 
L 110.678438 393.437493 
L 110.713973 392.234161 
L 111.230854 389.827512 
L 111.23642 388.624188 
L 111.417333 387.420863 
L 111.994967 386.217539 
L 112.002753 385.014214 
L 112.122656 383.81089 
L 112.356276 382.607565 
L 112.409684 380.200916 
L 112.545634 378.997592 
L 113.290886 376.590943 
L 113.293798 375.387618 
L 113.740309 374.184294 
L 113.912861 371.777645 
L 114.069029 369.370981 
L 114.67796 366.964332 
L 114.7676 363.354358 
L 115.542368 357.337736 
L 115.822915 353.727762 
L 116.765278 351.321113 
L 116.921547 350.117789 
L 117.682906 348.914464 
L 118.498534 345.304476 
L 118.534148 344.101151 
L 118.889647 341.694502 
L 119.266226 340.491178 
L 119.267616 339.287853 
L 119.624777 336.881204 
L 120.022232 332.067906 
L 120.247832 330.864582 
L 120.649127 326.051283 
L 120.6562 324.847959 
L 120.946094 322.441295 
L 121.091225 320.034646 
L 121.352832 317.627997 
L 122.149235 315.221348 
L 122.467599 314.018023 
L 122.566854 310.40805 
L 123.028269 309.204725 
L 123.366474 308.001401 
L 123.462423 304.391427 
L 123.562418 301.984778 
L 123.849243 300.781439 
L 124.463008 299.578114 
L 124.473406 298.37479 
L 124.598736 297.171465 
L 124.849611 295.968141 
L 125.320885 294.764816 
L 125.338083 292.358167 
L 126.957095 286.341545 
L 127.097818 285.13822 
L 127.594968 283.934896 
L 128.056467 281.528247 
L 128.140964 279.121598 
L 128.547715 277.918258 
L 128.824362 275.511609 
L 129.091306 274.308285 
L 129.220687 271.901636 
L 129.521291 270.698311 
L 129.634677 267.088323 
L 130.443159 264.681674 
L 130.507649 262.275025 
L 130.749953 261.0717 
L 130.877769 257.461727 
L 131.296471 256.258402 
L 131.439893 255.055078 
L 131.708568 253.851753 
L 132.321855 252.648429 
L 132.346778 251.445104 
L 133.274002 250.24178 
L 133.447829 249.038455 
L 134.011831 247.835131 
L 134.21024 245.428482 
L 134.654124 244.225157 
L 134.915615 241.818508 
L 135.476504 240.615184 
L 135.83153 238.208535 
L 136.092176 237.00521 
L 136.224602 234.598561 
L 136.507366 233.395237 
L 136.727084 230.988587 
L 136.978525 229.785263 
L 137.034401 228.581938 
L 137.549122 224.971965 
L 137.554551 223.76864 
L 138.118983 221.361962 
L 138.453315 218.955313 
L 139.040157 217.751988 
L 139.206648 216.548664 
L 139.724779 215.345339 
L 139.98284 214.142015 
L 140.084318 211.735366 
L 140.386536 210.532041 
L 140.459886 208.125392 
L 140.683701 206.922067 
L 142.165941 205.718743 
L 142.274995 204.515418 
L 142.564603 203.312094 
L 142.611 202.108769 
L 142.782721 200.905445 
L 142.917634 198.498796 
L 142.98875 197.295471 
L 143.257299 196.092147 
L 143.366826 193.685498 
L 143.78445 192.482173 
L 144.697131 191.278849 
L 145.272934 190.075524 
L 145.781552 186.465551 
L 146.206762 185.262226 
L 147.129893 184.058902 
L 147.191544 181.652253 
L 147.466962 180.448928 
L 147.994001 179.245604 
L 148.85109 178.042279 
L 148.999155 174.432276 
L 149.245586 173.228951 
L 150.114216 172.025627 
L 150.373316 170.822302 
L 151.613486 167.212329 
L 151.758985 166.009004 
L 152.54129 164.80568 
L 152.773808 163.602355 
L 153.618935 162.399031 
L 154.099626 161.195706 
L 154.11348 159.992382 
L 154.873691 157.585733 
L 154.93121 156.382408 
L 155.282671 155.179084 
L 155.382158 153.975759 
L 156.575077 151.56911 
L 158.650578 145.552488 
L 158.925239 143.145839 
L 158.974895 141.942514 
L 160.072893 139.535865 
L 160.178898 138.332541 
L 160.642797 137.129216 
L 160.78473 135.925891 
L 161.114263 134.722567 
L 162.772647 133.519242 
L 163.224351 132.315918 
L 164.196293 131.112564 
L 164.553691 129.909239 
L 164.711698 128.705915 
L 164.734411 127.50259 
L 165.745141 125.095941 
L 167.3394 123.892617 
L 167.44238 122.689292 
L 167.960473 120.282643 
L 168.67957 119.079319 
L 169.141786 117.875994 
L 169.173329 116.67267 
L 170.652422 115.469345 
L 170.87691 114.266021 
L 171.453825 113.062696 
L 171.893162 111.859371 
L 172.014953 109.452722 
L 172.531143 107.046073 
L 173.000941 105.842749 
L 173.043479 104.639424 
L 173.52877 103.4361 
L 173.568069 102.232775 
L 173.851429 101.029451 
L 173.967083 99.826126 
L 174.747031 98.622802 
L 175.577011 95.012828 
L 176.218699 93.809504 
L 176.721162 92.606179 
L 177.028678 91.402855 
L 178.228627 90.19953 
L 178.618869 88.996206 
L 178.91781 86.589557 
L 179.745019 85.386202 
L 181.55241 84.182878 
L 182.888921 82.979553 
L 183.044313 81.776229 
L 183.411111 80.572904 
L 184.137876 79.36958 
L 184.55653 78.166255 
L 185.551356 76.962931 
L 185.571074 75.759606 
L 186.207709 74.556282 
L 189.683216 72.149633 
L 189.881498 70.946308 
L 189.963766 69.742984 
L 194.502522 68.539659 
L 194.999716 67.336335 
L 200.645129 66.13301 
L 200.770618 64.929686 
L 202.869203 63.726361 
L 207.346649 62.523037 
L 208.132305 61.319712 
L 208.207255 60.116388 
L 208.415157 58.913063 
L 211.9594 57.709739 
L 214.851582 56.506414 
L 220.054477 55.30309 
L 221.737063 54.099765 
L 222.264248 52.896441 
L 226.178293 51.693116 
L 227.819091 50.489792 
L 228.202923 49.286467 
L 234.531138 48.083143 
L 237.809642 46.879818 
L 240.678945 45.676494 
L 245.405974 44.473169 
L 247.881591 43.269845 
L 251.27006 42.06652 
L 251.892802 40.863195 
L 253.578597 39.659841 
L 278.4393 38.456517 
L 283.278197 37.253192 
L 299.831765 36.049868 
L 322.480639 34.846543 
L 333.805827 33.643219 
L 333.96359 32.439894 
L 380.00627 31.23657 
L 404.46077 30.033245 
L 413.506535 28.829921 
L 427.126522 27.626596 
L 431.784729 26.423272 
L 453.093462 25.219947 
L 458.730992 24.016623 
L 475.057368 22.813298 
L 480.473073 21.609974 
L 498.290991 20.406649 
L 649.036904 19.203325 
L 663.296609 18 
L 663.296609 18 
" clip-path="url(#pe70ed04803)" style="fill: none; stroke: #2ca02c; stroke-width: 2; stroke-linecap: round"/>
   </g>
   <g id="patch_3">
    <path d="M 64.92 517.38 
L 64.92 18 
" style="fill: none; stroke: #404040; stroke-width: 2; stroke-linejoin: miter; stroke-linecap: square"/>
   </g>
   <g id="patch_4">
    <path d="M 699.21 517.38 
L 699.21 18 
" style="fill: none; stroke: #404040; stroke-width: 2; stroke-linejoin: miter; stroke-linecap: square"/>
   </g>
   <g id="patch_5">
    <path d="M 64.92 517.38 
L 699.21 517.38 
" style="fill: none; stroke: #404040; stroke-width: 2; stroke-linejoin: miter; stroke-linecap: square"/>
   </g>
   <g id="patch_6">
    <path d="M 64.92 18 
L 699.21 18 
" style="fill: none; stroke: #404040; stroke-width: 2; stroke-linejoin: miter; stroke-linecap: square"/>
   </g>
   <g id="legend_1">
    <g id="line2d_51">
     <path d="M 560.649375 435.48 
L 578.649375 435.48 
L 596.649375 435.48 
" style="fill: none; stroke: #1f77b4; stroke-width: 2; stroke-linecap: round"/>
    </g>
    <g id="text_13">
     <!-- Full -->
     <g style="fill: #262626" transform="translate(611.049375 441.78) scale(0.18 -0.18)">
      <defs>
       <path id="SourceHanSansSC-Regular-46" d="M 646 0 
L 1235 0 
L 1235 2106 
L 3027 2106 
L 3027 2605 
L 1235 2605 
L 1235 4192 
L 3347 4192 
L 3347 4691 
L 646 4691 
L 646 0 
z
" transform="scale(0.015625)"/>
       <path id="SourceHanSansSC-Regular-75" d="M 1606 -83 
C 2080 -83 2426 166 2752 544 
L 2771 544 
L 2816 0 
L 3302 0 
L 3302 3475 
L 2720 3475 
L 2720 1011 
C 2387 602 2138 422 1779 422 
C 1318 422 1126 698 1126 1344 
L 1126 3475 
L 538 3475 
L 538 1274 
C 538 384 870 -83 1606 -83 
z
" transform="scale(0.015625)"/>
       <path id="SourceHanSansSC-Regular-6c" d="M 1203 -70 
C 1350 -70 1459 -45 1542 0 
L 1459 429 
C 1408 416 1376 416 1344 416 
C 1248 416 1178 480 1178 672 
L 1178 5094 
L 589 5094 
L 589 710 
C 589 211 768 -70 1203 -70 
z
" transform="scale(0.015625)"/>
      </defs>
      <use xlink:href="#SourceHanSansSC-Regular-46"/>
      <use xlink:href="#SourceHanSansSC-Regular-75" x="55.199997"/>
      <use xlink:href="#SourceHanSansSC-Regular-6c" x="115.899994"/>
      <use xlink:href="#SourceHanSansSC-Regular-6c" x="144.299988"/>
     </g>
    </g>
    <g id="line2d_52">
     <path d="M 560.649375 462.93 
L 578.649375 462.93 
L 596.649375 462.93 
" style="fill: none; stroke: #ff7f0e; stroke-width: 2; stroke-linecap: round"/>
    </g>
    <g id="text_14">
     <!-- No-Aug -->
     <g style="fill: #262626" transform="translate(611.049375 469.23) scale(0.18 -0.18)">
      <defs>
       <path id="SourceHanSansSC-Regular-4e" d="M 646 0 
L 1203 0 
L 1203 2464 
C 1203 2957 1158 3456 1133 3930 
L 1158 3930 
C 1318 3610 1491 3277 1664 2957 
L 3373 0 
L 3981 0 
L 3981 4691 
L 3418 4691 
L 3418 2253 
C 3418 1766 3462 1235 3501 768 
L 3469 768 
C 3309 1088 3136 1421 2963 1734 
L 1248 4691 
L 646 4691 
L 646 0 
z
" transform="scale(0.015625)"/>
       <path id="SourceHanSansSC-Regular-6f" d="M 1939 -83 
C 2790 -83 3546 582 3546 1734 
C 3546 2893 2790 3565 1939 3565 
C 1088 3565 333 2893 333 1734 
C 333 582 1088 -83 1939 -83 
z
M 1939 403 
C 1338 403 934 934 934 1734 
C 934 2534 1338 3072 1939 3072 
C 2541 3072 2950 2534 2950 1734 
C 2950 934 2541 403 1939 403 
z
" transform="scale(0.015625)"/>
       <path id="SourceHanSansSC-Regular-2d" d="M 294 1568 
L 1933 1568 
L 1933 2016 
L 294 2016 
L 294 1568 
z
" transform="scale(0.015625)"/>
       <path id="SourceHanSansSC-Regular-41" d="M 26 0 
L 621 0 
L 1075 1434 
L 2790 1434 
L 3238 0 
L 3866 0 
L 2272 4691 
L 1613 4691 
L 26 0 
z
M 1222 1901 
L 1453 2624 
C 1619 3155 1773 3661 1920 4211 
L 1946 4211 
C 2099 3667 2246 3155 2419 2624 
L 2643 1901 
L 1222 1901 
z
" transform="scale(0.015625)"/>
       <path id="SourceHanSansSC-Regular-67" d="M 1760 -1600 
C 2835 -1600 3520 -1043 3520 -397 
C 3520 179 3110 429 2310 429 
L 1626 429 
C 1158 429 1018 589 1018 806 
C 1018 998 1114 1114 1242 1222 
C 1395 1146 1587 1101 1754 1101 
C 2470 1101 3027 1568 3027 2298 
C 3027 2618 2906 2848 2733 3002 
L 2733 3027 
L 3456 3027 
L 3456 3475 
L 2246 3475 
C 2125 3526 1952 3565 1754 3565 
C 1056 3565 454 3085 454 2323 
C 454 1907 678 1568 909 1389 
L 909 1363 
C 723 1235 525 1005 525 717 
C 525 442 659 256 838 147 
L 838 115 
C 512 -83 326 -371 326 -672 
C 326 -1267 915 -1600 1760 -1600 
z
M 1754 1498 
C 1357 1498 1018 1818 1018 2323 
C 1018 2835 1350 3136 1754 3136 
C 2170 3136 2496 2835 2496 2323 
C 2496 1818 2157 1498 1754 1498 
z
M 1843 -1197 
C 1210 -1197 838 -960 838 -589 
C 838 -390 941 -179 1190 0 
C 1344 -38 1510 -51 1638 -51 
L 2240 -51 
C 2701 -51 2944 -166 2944 -493 
C 2944 -851 2515 -1197 1843 -1197 
z
" transform="scale(0.015625)"/>
      </defs>
      <use xlink:href="#SourceHanSansSC-Regular-4e"/>
      <use xlink:href="#SourceHanSansSC-Regular-6f" x="72.299988"/>
      <use xlink:href="#SourceHanSansSC-Regular-2d" x="132.899979"/>
      <use xlink:href="#SourceHanSansSC-Regular-41" x="167.599976"/>
      <use xlink:href="#SourceHanSansSC-Regular-75" x="228.399963"/>
      <use xlink:href="#SourceHanSansSC-Regular-67" x="289.09996"/>
     </g>
    </g>
    <g id="line2d_53">
     <path d="M 560.649375 490.756875 
L 578.649375 490.756875 
L 596.649375 490.756875 
" style="fill: none; stroke: #2ca02c; stroke-width: 2; stroke-linecap: round"/>
    </g>
    <g id="text_15">
     <!-- No-Cons -->
     <g style="fill: #262626" transform="translate(611.049375 497.056875) scale(0.18 -0.18)">
      <defs>
       <path id="SourceHanSansSC-Regular-43" d="M 2426 -83 
C 3034 -83 3469 154 3846 589 
L 3539 934 
C 3238 608 2899 435 2464 435 
C 1555 435 979 1178 979 2362 
C 979 3526 1574 4256 2458 4256 
C 2848 4256 3168 4102 3418 3840 
L 3738 4198 
C 3469 4518 3014 4774 2451 4774 
C 1261 4774 371 3859 371 2342 
C 371 819 1254 -83 2426 -83 
z
" transform="scale(0.015625)"/>
       <path id="SourceHanSansSC-Regular-6e" d="M 589 0 
L 1178 0 
L 1178 2522 
C 1523 2874 1766 3053 2125 3053 
C 2586 3053 2784 2778 2784 2125 
L 2784 0 
L 3366 0 
L 3366 2202 
C 3366 3085 3034 3565 2304 3565 
C 1830 3565 1466 3302 1139 2970 
L 1126 2970 
L 1069 3475 
L 589 3475 
L 589 0 
z
" transform="scale(0.015625)"/>
       <path id="SourceHanSansSC-Regular-73" d="M 1498 -83 
C 2317 -83 2758 384 2758 947 
C 2758 1581 2240 1811 1690 2010 
C 1267 2163 954 2285 954 2605 
C 954 2867 1158 3110 1600 3110 
C 1907 3110 2157 3008 2400 2829 
L 2669 3168 
C 2406 3398 2022 3565 1594 3565 
C 832 3565 397 3130 397 2579 
C 397 2003 902 1760 1421 1568 
C 1811 1427 2202 1267 2202 915 
C 2202 614 1978 371 1517 371 
C 1082 371 768 506 474 755 
L 205 410 
C 518 96 986 -83 1498 -83 
z
" transform="scale(0.015625)"/>
      </defs>
      <use xlink:href="#SourceHanSansSC-Regular-4e"/>
      <use xlink:href="#SourceHanSansSC-Regular-6f" x="72.299988"/>
      <use xlink:href="#SourceHanSansSC-Regular-2d" x="132.899979"/>
      <use xlink:href="#SourceHanSansSC-Regular-43" x="167.599976"/>
      <use xlink:href="#SourceHanSansSC-Regular-6f" x="231.399963"/>
      <use xlink:href="#SourceHanSansSC-Regular-6e" x="291.999954"/>
      <use xlink:href="#SourceHanSansSC-Regular-73" x="352.999939"/>
     </g>
    </g>
   </g>
  </g>
 </g>
 <defs>
  <clipPath id="pe70ed04803">
   <rect x="64.92" y="18" width="634.29" height="499.38"/>
  </clipPath>
 </defs>
</svg>
